<svg xmlns="http://www.w3.org/2000/svg" width="1280" height="720" viewBox="0 0 1280 720" version="1.1"><path d="M 993 31.735 C 983.459 32.975, 973.948 35.735, 967.780 39.054 C 966.834 39.563, 962.784 39.703, 958.780 39.366 C 954.432 38.999, 949.147 39.241, 945.656 39.966 C 940.118 41.117, 939.922 41.257, 941.908 42.648 C 943.061 43.455, 944.422 43.857, 944.933 43.542 C 945.444 43.226, 946.143 43.423, 946.487 43.979 C 947.243 45.203, 944.680 46.298, 935.705 48.588 C 930.885 49.817, 929.059 50.711, 929.423 51.661 C 929.709 52.405, 929.285 53, 928.469 53 C 927.661 53, 927 52.502, 927 51.893 C 927 51.284, 926.354 51.034, 925.565 51.337 C 924.775 51.640, 923.952 51.356, 923.735 50.706 C 922.780 47.841, 911.294 56.562, 908.300 62.425 C 907.436 64.116, 905.166 67.872, 903.254 70.771 C 901.083 74.063, 899.972 76.784, 900.295 78.020 C 900.579 79.108, 900.404 80.250, 899.906 80.558 C 898.039 81.712, 898.476 73.769, 900.453 70.628 C 901.189 69.458, 902.092 67.375, 902.460 66 C 902.827 64.625, 901.526 66.262, 899.569 69.637 C 896.910 74.225, 895.736 77.753, 894.921 83.610 C 894.322 87.920, 893.419 92.216, 892.916 93.157 C 892.412 94.099, 892 96.642, 892 98.809 C 892 104.062, 890.961 109, 889.856 109 C 889.364 109, 889.224 107.763, 889.544 106.250 C 889.864 104.737, 890.331 102.487, 890.582 101.250 C 890.833 100.013, 890.580 99, 890.019 99 C 889.459 99, 889 99.922, 889 101.050 C 889 102.177, 888.275 104.502, 887.389 106.215 C 886.321 108.281, 885.943 110.798, 886.268 113.682 C 886.537 116.074, 886.394 118.257, 885.949 118.532 C 885.504 118.807, 884.825 121.549, 884.441 124.627 C 883.909 128.885, 884.071 130.431, 885.121 131.096 C 885.879 131.576, 886.050 131.978, 885.500 131.988 C 883.948 132.017, 884.148 140, 885.701 140 C 887.264 140, 887.316 140.541, 885.991 143.018 C 885.234 144.432, 885.377 145.228, 886.562 146.202 C 892.243 150.866, 893.782 154, 890.393 154 C 889.338 154, 888.995 154.544, 889.393 155.582 C 889.727 156.452, 890 157.338, 890 157.550 C 890 157.763, 890.595 157.709, 891.321 157.430 C 892.319 157.047, 892.577 158.035, 892.376 161.462 C 892.223 164.047, 892.546 166, 893.126 166 C 895.780 166, 899.838 173.323, 900.053 178.500 C 900.130 180.364, 900.209 180.347, 901.220 178.250 C 901.817 177.013, 902.687 176, 903.153 176 C 903.619 176, 904 175.151, 904 174.114 C 904 172.927, 905.391 171.548, 907.750 170.394 C 911.352 168.632, 915.918 167.817, 915.813 168.954 C 915.596 171.317, 916.116 172.154, 917.250 171.267 C 920.096 169.040, 923.036 169.126, 924.579 171.481 C 926.422 174.293, 929.382 175.186, 932.690 173.928 C 934.787 173.131, 935.789 173.519, 939.228 176.463 C 941.461 178.375, 943.647 179.718, 944.085 179.448 C 944.522 179.177, 945.470 179.663, 946.190 180.526 C 946.911 181.390, 948.518 183.185, 949.763 184.515 C 951.750 186.640, 951.947 187.600, 951.382 192.408 C 950.687 198.319, 951.578 200.137, 955.694 201.211 C 957.497 201.681, 958.002 201.268, 958.522 198.898 C 959.086 196.332, 959.322 196.179, 960.659 197.516 C 961.485 198.342, 962.524 198.794, 962.967 198.520 C 963.410 198.247, 964.018 198.963, 964.319 200.112 C 964.970 202.600, 967 201.713, 967 198.941 C 967 197.451, 967.697 197, 970 197 C 972.027 197, 973 197.497, 973 198.531 C 973 199.374, 973.675 200.322, 974.500 200.638 C 975.325 200.955, 976 201.616, 976 202.107 C 976 202.598, 975.325 203, 974.500 203 C 973.675 203, 973 203.661, 973 204.469 C 973 205.363, 973.586 205.712, 974.500 205.362 C 975.325 205.045, 976 205.284, 976 205.893 C 976 206.502, 976.337 206.929, 976.750 206.841 C 977.890 206.600, 981.237 208.139, 983.740 210.056 C 985.631 211.505, 985.759 211.955, 984.563 212.948 C 983.611 213.738, 983.328 215.247, 983.701 217.545 C 984.411 221.922, 982.543 226.432, 979.432 227.849 C 976.226 229.310, 976.068 232.421, 979.250 231.443 C 980.487 231.063, 981.180 231.090, 980.790 231.503 C 980.399 231.916, 978.206 232.597, 975.917 233.015 C 972.359 233.666, 971.685 233.512, 971.279 231.958 C 971.012 230.937, 969.980 230.201, 968.928 230.280 C 966.830 230.438, 965.567 232.615, 967.044 233.527 C 967.570 233.852, 968 233.566, 968 232.892 C 968 232.218, 968.236 231.902, 968.524 232.190 C 969.694 233.361, 967.646 236.141, 965.942 235.695 C 964.681 235.365, 963.978 235.953, 963.538 237.703 C 963.028 239.737, 962.658 239.961, 961.459 238.966 C 960.302 238.005, 959.987 238.039, 959.937 239.128 C 959.902 239.882, 959.482 239.530, 959.003 238.344 C 958.158 236.248, 958.036 236.234, 954.659 237.844 C 952.520 238.863, 951.533 239.865, 952.092 240.450 C 953.875 242.315, 952.960 243.086, 950.777 241.557 C 947.933 239.565, 946 239.571, 946 241.571 C 946 244.251, 943.310 246.003, 939.321 245.921 C 937.220 245.878, 936.063 245.615, 936.750 245.338 C 937.438 245.060, 938 244.373, 938 243.810 C 938 243.247, 937.308 243.052, 936.462 243.376 C 935.587 243.712, 934.679 243.327, 934.355 242.483 C 934.042 241.667, 933.197 241, 932.476 241 C 931.756 241, 930.193 239.762, 929.002 238.250 C 927.774 236.690, 927.075 236.257, 927.387 237.250 C 927.799 238.561, 927.373 239, 925.691 239 C 924.456 239, 922.522 239.647, 921.393 240.437 C 920.049 241.378, 915.819 242.013, 909.144 242.275 C 899.537 242.651, 898.813 242.540, 896.624 240.352 L 894.302 238.029 890.772 241.961 C 888.741 244.224, 886.944 247.487, 886.538 249.650 C 886.150 251.716, 884.971 255.097, 883.917 257.164 C 881.613 261.678, 881.472 264, 883.500 264 C 884.325 264, 885 264.800, 885 265.778 C 885 266.756, 885.940 268.360, 887.088 269.344 C 889.115 271.079, 889.157 271.070, 888.521 269.066 C 888.049 267.578, 888.304 267, 889.433 267 C 890.295 267, 891 267.675, 891 268.500 C 891 270.057, 892.519 270.562, 893.253 269.250 C 893.483 268.837, 893.441 269.175, 893.159 270 C 892.876 270.825, 892.454 273.750, 892.220 276.500 C 891.986 279.250, 891.337 282.060, 890.779 282.745 C 890.071 283.613, 890.254 284.739, 891.382 286.460 C 892.272 287.818, 893 289.676, 893 290.587 C 893 291.777, 893.352 291.964, 894.250 291.250 C 896.092 289.783, 902.967 290.334, 904.043 292.035 C 904.817 293.260, 904.972 293.213, 904.985 291.750 C 904.993 290.788, 905.450 290, 906 290 C 906.550 290, 907 290.466, 907 291.035 C 907 291.734, 907.658 291.718, 909.021 290.989 C 911.591 289.614, 913 290.483, 913 293.444 C 913 294.829, 911.976 296.441, 910.468 297.429 C 907.078 299.650, 908.311 301.352, 912.713 300.526 C 914.988 300.099, 915.977 300.228, 915.563 300.897 C 915.215 301.461, 913.258 302.224, 911.215 302.593 C 906.258 303.487, 905.963 303.725, 906.849 306.121 C 907.941 309.073, 918.106 312.361, 923.593 311.538 C 928.260 310.838, 929.770 309.482, 932.977 303.107 C 935.029 299.027, 939.184 292.711, 944.561 285.500 C 945.791 283.850, 947.488 280.475, 948.333 278 C 949.177 275.525, 950.348 273.613, 950.934 273.750 C 951.520 273.888, 952 273.325, 952 272.500 C 952 271.675, 952.675 271, 953.500 271 C 956.007 271, 955.947 284.680, 953.415 290.296 C 951.803 293.871, 951.291 294.733, 945.250 304.049 C 942.913 307.654, 941 311.368, 941 312.302 C 941 313.236, 940.610 314, 940.133 314 C 938.949 314, 934 321.604, 934 323.422 C 934 324.228, 932.650 325.684, 931 326.659 C 927.898 328.492, 927.349 329.480, 928.903 330.440 C 929.417 330.758, 929.220 332.941, 928.443 335.523 C 927.694 338.012, 927.315 340.657, 927.600 341.401 C 927.921 342.237, 927.181 342.989, 925.661 343.370 C 923.941 343.802, 922.648 345.338, 921.352 348.490 C 920.333 350.966, 919.155 352.994, 918.734 352.996 C 918.313 352.998, 918.053 354.462, 918.156 356.250 C 918.375 360.030, 920.987 363.338, 925.099 365.041 C 929.277 366.772, 928.752 369.386, 923.500 373 C 921.025 374.703, 919 376.640, 919 377.304 C 919 377.968, 917.628 379.119, 915.952 379.861 C 914.275 380.603, 911.615 382.295, 910.040 383.620 C 908.019 385.321, 907.037 385.657, 906.703 384.765 C 906.346 383.810, 905.895 383.885, 904.865 385.070 C 904.114 385.933, 902.263 387.406, 900.750 388.343 C 899.237 389.280, 898 390.909, 898 391.964 C 898 393.019, 897.550 394.160, 897 394.500 C 896.450 394.840, 896 397.566, 896 400.559 C 896 403.552, 895.615 406, 895.145 406 C 894.675 406, 894.208 408.988, 894.107 412.641 C 893.956 418.136, 894.269 419.602, 895.921 421.141 C 898.613 423.649, 899.841 423.480, 900.589 420.500 C 900.934 419.125, 901.533 418, 901.920 418 C 902.307 418, 903.655 417.038, 904.917 415.862 C 906.791 414.117, 907.373 413.979, 908.091 415.112 C 908.722 416.110, 908.974 416.149, 908.985 415.250 C 908.993 414.563, 909.675 414, 910.500 414 C 911.325 414, 912 413.325, 912 412.500 C 912 411.675, 912.477 411, 913.059 411 C 913.641 411, 913.797 411.520, 913.404 412.156 C 912.090 414.281, 919.385 412.133, 921.293 409.833 C 922.709 408.127, 922.814 407.499, 921.793 406.851 C 919.996 405.711, 921.135 405.803, 924.851 407.098 C 926.583 407.702, 928 408.602, 928 409.098 C 928 409.594, 928.337 409.947, 928.750 409.882 C 931.428 409.459, 932.036 410.064, 930.958 412.078 C 930.322 413.267, 929.238 413.922, 928.423 413.609 C 927.567 413.280, 927 413.685, 927 414.625 C 927 415.484, 926.100 416.423, 925 416.710 C 923.900 416.998, 923 417.904, 923 418.724 C 923 419.675, 923.575 419.993, 924.590 419.604 C 925.465 419.268, 926.585 419.243, 927.079 419.549 C 928.414 420.374, 925.005 425.048, 922.325 426.066 C 920.739 426.670, 920 427.753, 920 429.475 C 920 431.971, 919.249 432.414, 915.658 432.037 C 914.309 431.895, 913.958 432.333, 914.348 433.672 C 916.754 441.927, 916.985 443.938, 915.823 446.489 C 914.832 448.665, 914.874 449.308, 916.057 450.056 C 917.606 451.036, 921.043 451.442, 924.879 451.097 C 926.586 450.944, 927.103 451.290, 926.707 452.321 C 926.292 453.403, 927.299 453.886, 930.795 454.280 C 933.347 454.568, 935.591 455.272, 935.782 455.845 C 935.973 456.419, 936.775 456.640, 937.565 456.337 C 938.445 455.999, 939 456.408, 939 457.393 C 939 458.277, 939.450 459, 940 459 C 940.550 459, 941 458.550, 941 458 C 941 455.474, 942.847 457.372, 943.434 460.500 C 943.827 462.595, 944.675 464, 945.545 464 C 946.345 464, 947 464.450, 947 465 C 947 465.550, 946.433 466, 945.741 466 C 945.048 466, 943.881 466.960, 943.148 468.134 C 942.072 469.858, 942.061 470.420, 943.094 471.058 C 944.106 471.684, 944.117 472.154, 943.144 473.327 C 942.170 474.500, 942.183 474.913, 943.208 475.327 C 944.042 475.663, 944.145 476.141, 943.500 476.674 C 942.950 477.128, 942.500 478.175, 942.500 479 C 942.500 481.181, 936.924 481.616, 935.755 479.527 C 935.082 478.324, 934.497 478.173, 933.552 478.957 C 932.620 479.730, 931.943 479.636, 931.096 478.616 C 929.862 477.128, 925.631 477.594, 926.570 479.114 C 926.872 479.601, 926.679 480, 926.142 480 C 925.606 480, 925.017 479.561, 924.833 479.026 C 924.650 478.490, 923.493 478.316, 922.261 478.639 C 921.030 478.963, 920.266 479.622, 920.565 480.105 C 921.375 481.415, 917.748 485.932, 915.857 485.969 C 914.953 485.986, 913.944 485.296, 913.614 484.437 C 913.284 483.577, 912.561 483.153, 912.007 483.496 C 911.453 483.838, 911 483.443, 911 482.618 C 911 480.347, 908.859 479.500, 907.819 481.360 C 906.744 483.280, 903.051 483.572, 902.888 481.750 C 902.827 481.063, 902.714 478.925, 902.638 477 C 902.536 474.422, 902.086 473.567, 900.927 473.753 C 899.860 473.925, 899.044 472.800, 898.389 470.253 C 897.800 467.966, 896.900 466.614, 896.084 466.793 C 895.193 466.987, 894.918 466.420, 895.264 465.099 C 895.579 463.895, 895.036 462.438, 893.885 461.396 C 891.562 459.293, 890.452 460.108, 891.915 462.842 C 893.273 465.378, 892.323 468, 890.048 468 C 887.073 468, 884.589 471.783, 884.397 476.606 L 884.219 481.086 876.860 481.417 C 872.812 481.598, 867.475 482.472, 865 483.359 C 862.525 484.245, 859.314 484.977, 857.865 484.985 C 854.509 485.004, 848.732 487.399, 849.703 488.370 C 850.108 488.774, 849.700 488.822, 848.798 488.476 C 847.895 488.129, 846.109 488.423, 844.828 489.128 C 843.548 489.833, 841.750 490.296, 840.834 490.156 C 839.918 490.017, 837.668 490.529, 835.834 491.294 C 834 492.060, 830.858 492.994, 828.850 493.370 C 826.843 493.745, 824.651 494.716, 823.978 495.526 C 822.371 497.463, 821 497.401, 821 495.392 C 821 494.143, 820.385 493.931, 818.250 494.446 C 816.737 494.811, 815.006 495.753, 814.401 496.539 C 813.797 497.326, 812.972 497.639, 812.569 497.236 C 812.166 496.833, 811.228 497.335, 810.485 498.352 C 809.741 499.368, 808.633 499.891, 808.023 499.514 C 807.412 499.137, 806.370 499.266, 805.706 499.801 C 805.043 500.337, 802.700 501.009, 800.500 501.295 C 782.791 503.594, 772.193 505.156, 770.500 505.716 C 769.400 506.080, 768.050 506.462, 767.500 506.565 C 766.950 506.668, 763.902 507.292, 760.726 507.952 C 757.551 508.612, 753.565 509.327, 751.870 509.542 C 750.174 509.756, 748.149 510.461, 747.369 511.108 C 746.590 511.756, 745.666 512, 745.318 511.651 C 744.969 511.303, 744.193 511.419, 743.592 511.911 C 742.991 512.402, 740.587 513.316, 738.250 513.941 C 734.496 514.944, 732.312 517, 735 517 C 735.550 517, 736 517.450, 736 518 C 736 518.550, 735.100 519, 734 519 C 732.815 519, 732 518.333, 732 517.364 C 732 516.058, 731.518 516.210, 729.619 518.114 C 728.309 519.426, 727.066 521.395, 726.857 522.489 C 726.352 525.132, 723.322 525.602, 720.902 523.411 C 719.408 522.059, 718.678 521.922, 717.776 522.824 C 717.129 523.471, 715.881 524, 715.001 524 C 714.122 524, 711.625 525.689, 709.451 527.753 C 704.572 532.388, 700.629 534.975, 698.285 535.079 C 697.303 535.122, 697.037 535.376, 697.694 535.644 C 700.542 536.802, 694.235 543.912, 690.309 543.968 C 689.104 543.986, 687.839 544.451, 687.498 545.003 C 687.158 545.554, 684.922 546.897, 682.530 547.986 C 679.638 549.304, 677.733 550.997, 676.841 553.044 C 675.781 555.477, 675.013 556.030, 673.171 555.684 C 671.841 555.435, 670.631 555.799, 670.349 556.533 C 670.077 557.241, 668.782 558.089, 667.470 558.418 C 666.158 558.747, 663.828 560.211, 662.292 561.671 C 660.757 563.130, 660.216 564.068, 661.091 563.755 C 661.966 563.441, 663.261 563.543, 663.969 563.981 C 665.815 565.122, 664.136 567.269, 661.863 566.675 C 660.502 566.318, 660.031 566.641, 660.226 567.797 C 660.386 568.747, 659.341 569.987, 657.707 570.785 C 655.526 571.851, 655.047 572.628, 655.522 574.325 C 655.988 575.989, 655.894 576.156, 655.123 575.034 C 654.303 573.842, 653.910 574.108, 653.017 576.456 C 652.413 578.045, 652.139 579.919, 652.408 580.621 C 653.025 582.228, 650.210 588, 648.810 588 C 648.236 588, 648.002 588.900, 648.290 590 C 648.864 592.197, 648.277 592.461, 646.008 591.026 C 644.820 590.275, 644.770 589.830, 645.758 588.842 C 648.083 586.517, 647.011 585.641, 644.605 587.901 C 643.289 589.138, 642.019 589.779, 641.784 589.325 C 641.549 588.871, 641.234 516.950, 641.084 429.500 C 640.934 342.050, 640.648 245.300, 640.448 214.500 C 640.249 183.700, 640.066 148.121, 640.043 135.435 L 640 112.369 624.528 110.551 C 612.181 109.100, 604.188 108.826, 584.943 109.195 C 570.087 109.480, 560.574 110.051, 560.165 110.683 C 559.799 111.247, 555.900 111.951, 551.500 112.249 C 543.767 112.771, 534.684 115.758, 530.420 119.181 C 524.434 123.986, 520.006 129.619, 519.985 132.453 C 519.977 133.579, 519.305 136.412, 518.490 138.750 C 517.183 142.503, 517.183 143.497, 518.490 147.250 C 519.305 149.587, 519.977 153.010, 519.985 154.856 C 519.993 156.701, 520.628 160.751, 521.397 163.856 C 522.165 166.960, 523.068 174.450, 523.403 180.500 C 524.123 193.474, 525.301 198.334, 528.584 201.874 C 529.913 203.307, 531 204.804, 531 205.200 C 531 206.620, 540.954 216, 542.461 216 C 543.307 216, 544 216.645, 544 217.433 C 544 218.221, 544.788 219.119, 545.750 219.430 C 548.001 220.157, 553.564 225.382, 555.752 228.825 C 556.687 230.296, 558.025 231.860, 558.726 232.300 C 559.427 232.740, 560.013 233.640, 560.028 234.300 C 560.063 235.765, 568.514 245, 569.820 245 C 570.334 245, 571.315 245.675, 572 246.500 C 572.685 247.325, 574.513 248, 576.063 248 C 577.614 248, 579.131 248.402, 579.435 248.894 C 580.197 250.129, 586.562 251.009, 599.298 251.642 C 608.494 252.100, 610.272 252.463, 611.288 254.090 C 611.994 255.220, 613.607 256, 615.241 256 C 617.885 256, 618 256.208, 618 261 C 618 263.750, 617.550 266, 617 266 C 616.450 266, 616 267.350, 616 269 C 616 270.650, 615.550 272, 615 272 C 614.450 272, 614 272.900, 614 274 C 614 275.100, 614.450 276, 615 276 C 615.550 276, 616 276.900, 616 278 C 616 279.100, 615.579 280, 615.064 280 C 614.549 280, 613.116 281.800, 611.880 284 C 610.643 286.200, 609.265 288, 608.816 288 C 608.367 288, 608 288.845, 608 289.878 C 608 290.910, 607.350 292.295, 606.555 292.955 C 605.760 293.614, 604.374 296.369, 603.474 299.077 C 602.575 301.785, 601.425 304, 600.920 304 C 600.414 304, 600 304.916, 600 306.035 C 600 307.155, 599.369 309.067, 598.598 310.285 C 597.827 311.503, 596.880 314.016, 596.492 315.870 C 596.105 317.723, 594.438 320.648, 592.788 322.370 C 591.138 324.091, 588.217 327.863, 586.297 330.750 C 584.377 333.637, 582.205 336, 581.470 336 C 580.736 336, 579.884 336.787, 579.578 337.750 C 579.272 338.712, 577.920 340.688, 576.572 342.141 C 574.535 344.336, 574.006 346.206, 573.436 353.234 L 572.750 361.686 575.761 363.830 C 579.294 366.346, 581.875 372.194, 583.036 380.317 C 583.990 386.995, 584.536 386.045, 573.290 397.290 C 563.553 407.028, 562.360 408, 560.155 408 C 559.140 408, 557.495 408.900, 556.500 410 C 555.505 411.100, 554.170 412, 553.534 412 C 552.898 412, 551.501 412.788, 550.430 413.750 C 549.359 414.712, 546.063 416.772, 543.106 418.327 C 537.780 421.128, 528.111 430.366, 528.038 432.726 C 528.017 433.400, 527.102 435.425, 526.004 437.226 C 523.505 441.325, 523.230 455.102, 525.498 462.568 C 527.997 470.791, 537.843 480, 544.137 480 C 545.813 480, 548.329 480.900, 549.727 482 C 551.126 483.100, 553.109 484, 554.135 484 C 555.161 484, 556 484.450, 556 485 C 556 485.550, 557.098 486, 558.441 486 C 559.784 486, 561.160 486.450, 561.500 487 C 561.840 487.550, 563.213 488, 564.551 488 C 568.123 488, 572 491.787, 572 495.276 C 572 498.082, 569.242 504, 567.934 504 C 567.585 504, 566.721 509.343, 566.014 515.874 C 564.861 526.515, 564.897 528.088, 566.364 531.028 C 567.264 532.831, 568 534.811, 568 535.426 C 568 536.041, 571.712 540.227, 576.250 544.727 C 581.891 550.323, 586.318 553.738, 590.250 555.529 C 593.413 556.969, 596 558.564, 596 559.073 C 596 559.583, 596.900 560, 598 560 C 599.100 560, 600 560.619, 600 561.375 C 600 562.131, 601.344 563.019, 602.986 563.347 C 604.628 563.676, 606.753 564.857, 607.708 565.972 C 608.663 567.087, 609.971 568, 610.615 568 C 611.259 568, 612.045 568.675, 612.362 569.500 C 612.678 570.325, 613.462 571, 614.104 571 C 614.746 571, 616.313 572.125, 617.588 573.500 C 618.862 574.875, 620.548 576, 621.335 576 C 622.387 576, 622.953 578.010, 623.478 583.610 L 624.191 591.220 620.346 595.196 C 615.772 599.925, 609.533 603.258, 602 604.994 C 598.975 605.691, 595.960 606.689, 595.300 607.212 C 593.659 608.511, 580.993 607.621, 572.596 605.615 C 568.799 604.708, 562.949 602.557, 559.596 600.834 C 550.378 596.097, 550.157 596.002, 548.264 595.967 C 547.294 595.949, 544.138 595.119, 541.250 594.121 C 537.081 592.681, 536 592.585, 536 593.654 C 536 594.574, 534.634 595, 531.678 595 C 526.629 595, 519.090 597.364, 516.378 599.797 C 511.897 603.817, 484.158 615.985, 479.450 615.995 C 478.322 615.998, 476.972 616.370, 476.450 616.823 C 475.579 617.578, 472.723 618.526, 458.500 622.778 C 455.750 623.601, 452.600 624.649, 451.500 625.109 C 450.400 625.569, 445.450 626.894, 440.500 628.055 C 430.977 630.288, 424.827 632.140, 424 633.024 C 423.725 633.317, 419.675 634.636, 415 635.954 C 410.325 637.273, 405.825 638.674, 405 639.070 C 403.260 639.903, 395.104 641.659, 386.500 643.054 C 380.432 644.037, 375.155 645.426, 371.500 647.002 C 370.400 647.476, 368.150 648.066, 366.500 648.313 C 364.850 648.561, 359.900 649.769, 355.500 650.998 C 351.100 652.227, 345.877 653.355, 343.892 653.505 C 341.908 653.655, 339.350 654.277, 338.208 654.889 C 337.066 655.500, 334.832 656, 333.244 656 C 330.234 656, 320.869 658.823, 320 659.992 C 319.725 660.362, 317.025 661.489, 314 662.498 C 310.975 663.506, 306.670 665.156, 304.434 666.165 C 302.198 667.174, 299.589 668, 298.636 668 C 297.683 668, 295.041 668.900, 292.764 670 C 290.487 671.100, 287.653 672, 286.466 672 C 285.279 672, 283.001 672.633, 281.404 673.406 C 279.807 674.179, 273.888 675.633, 268.250 676.638 C 262.613 677.642, 258 678.809, 258 679.232 C 258 679.654, 255.996 680, 253.547 680 C 251.098 680, 248.060 680.408, 246.797 680.907 C 245.534 681.406, 239.775 682.782, 234 683.965 C 228.225 685.148, 222.719 686.540, 221.764 687.058 C 220.809 687.576, 219.121 688, 218.014 688 C 216.906 688, 216 688.378, 216 688.840 C 216 689.718, 211.943 691.078, 203.500 693.030 C 200.750 693.665, 197.600 694.528, 196.500 694.946 C 192.082 696.625, 184.303 699.253, 181 700.182 C 179.075 700.724, 175.925 702.379, 174 703.860 C 172.075 705.341, 169.250 707.100, 167.722 707.768 C 166.194 708.436, 164.683 709.662, 164.365 710.491 C 164.047 711.321, 163.159 712, 162.393 712 C 161.434 712, 161 713.248, 161 716 L 161 720 574.433 720 C 978.851 720, 987.878 719.959, 988.465 718.111 C 989.489 714.883, 993.789 711, 996.339 711 C 998.318 711, 998.865 711.608, 999.263 714.250 C 999.532 716.038, 999.358 717.650, 998.876 717.833 C 993.975 719.698, 1011.911 720, 1127.500 720 L 1257 720 1256.999 676.750 C 1256.998 652.962, 1256.700 616.288, 1256.336 595.250 L 1255.675 557 1252.588 556.994 C 1250.889 556.990, 1248.375 556.401, 1247 555.684 C 1245.625 554.966, 1242.188 553.548, 1239.361 552.532 C 1233.895 550.567, 1223.050 541.090, 1217.583 533.500 C 1215.998 531.300, 1214.172 529.050, 1213.526 528.500 C 1212.879 527.950, 1210.698 524.350, 1208.679 520.500 C 1198.084 500.301, 1188.160 494.554, 1162 493.469 C 1155.675 493.206, 1146.044 492.797, 1140.598 492.559 L 1130.697 492.126 1125.855 487.357 C 1122.589 484.140, 1120.797 481.435, 1120.348 479.044 C 1119.620 475.166, 1122.081 457.961, 1124.546 449.688 C 1127.714 439.058, 1129.303 434.474, 1130.140 433.550 C 1130.613 433.027, 1131 431.761, 1131 430.736 C 1131 428.582, 1138.575 405.835, 1140.653 401.750 C 1142.290 398.530, 1142.056 398.579, 1146.654 400.500 C 1150.976 402.306, 1153.985 402.384, 1159.182 400.827 C 1163.768 399.453, 1169 393.963, 1169 390.524 C 1169 389.201, 1169.447 387.841, 1169.994 387.504 C 1171.858 386.352, 1185 367.270, 1185 365.715 C 1185 364.864, 1185.346 364.017, 1185.769 363.833 C 1186.756 363.405, 1193.867 351.134, 1197.263 344 C 1201.356 335.399, 1203.145 327.571, 1202.947 319.129 C 1202.756 310.968, 1200.570 301, 1198.972 301 C 1198.437 301, 1198 300.311, 1198 299.469 C 1198 298.626, 1197.328 297.679, 1196.506 297.364 C 1195.684 297.048, 1195.223 296.448, 1195.482 296.029 C 1195.741 295.610, 1195.063 294.462, 1193.976 293.479 C 1192.889 292.495, 1192 292.188, 1192 292.797 C 1192 293.406, 1190.875 292.862, 1189.500 291.588 C 1186.540 288.844, 1186.190 284.036, 1188.619 279.500 C 1190.579 275.841, 1192.916 266.629, 1192.964 262.372 C 1192.984 260.652, 1193.675 258.685, 1194.500 258 C 1195.325 257.315, 1196 255.653, 1196 254.306 C 1196 252.959, 1196.679 251.178, 1197.509 250.348 C 1198.339 249.518, 1198.769 248.435, 1198.464 247.942 C 1197.897 247.025, 1201.195 235.819, 1204.917 226.014 C 1206.063 222.997, 1207.003 219.622, 1207.006 218.514 C 1207.010 217.406, 1207.690 215.200, 1208.518 213.612 C 1209.347 212.024, 1209.910 210.224, 1209.771 209.612 C 1209.632 209, 1211.050 205.350, 1212.923 201.500 C 1214.796 197.650, 1216.704 193.719, 1217.164 192.764 C 1219.249 188.433, 1216.570 176.239, 1213.652 176.777 C 1212.826 176.929, 1211.869 176.596, 1211.523 176.038 C 1211.143 175.422, 1211.566 175.280, 1212.599 175.676 C 1214.117 176.259, 1214.227 175.770, 1213.614 171.148 C 1213.060 166.971, 1213.225 165.851, 1214.463 165.376 C 1217.467 164.223, 1216.074 157.981, 1211.031 150 C 1210.510 149.175, 1208.827 145.692, 1207.292 142.260 C 1205.756 138.829, 1203.938 136.016, 1203.250 136.010 C 1202.563 136.005, 1202 135.178, 1202 134.174 C 1202 133.170, 1200.895 131.310, 1199.544 130.041 C 1198.193 128.772, 1195.830 125.897, 1194.294 123.654 C 1190.802 118.555, 1184.447 112.277, 1181.986 111.495 C 1180.962 111.170, 1179.637 109.463, 1179.043 107.702 C 1177.817 104.065, 1168.150 93.646, 1164.022 91.511 C 1162.515 90.732, 1160.693 88.611, 1159.972 86.797 C 1158.663 83.501, 1155.678 79.905, 1146.751 70.870 C 1140.108 64.147, 1121.039 51.892, 1111.500 48.216 C 1100.960 44.154, 1096.135 43.268, 1079.983 42.433 C 1068.147 41.820, 1066.298 41.936, 1065.111 43.367 C 1063.416 45.408, 1058.654 45.493, 1057.008 43.510 C 1055.986 42.278, 1056.181 41.856, 1058.136 41.073 L 1060.500 40.127 1058 40.043 C 1047.212 39.681, 1040.758 38.823, 1036.315 37.160 C 1032.173 35.610, 1031.027 35.487, 1030.620 36.547 C 1030.053 38.025, 1021.941 37.688, 1017.507 36.003 C 1016.128 35.478, 1015 35.404, 1015 35.837 C 1015 36.271, 1012.069 36.625, 1008.487 36.625 C 1004.794 36.625, 1001.461 37.139, 1000.788 37.813 C 999.109 39.491, 996 39.288, 996 37.500 C 996 36.481, 994.958 35.990, 992.750 35.968 C 989.676 35.938, 989.605 35.857, 991.441 34.468 C 992.509 33.661, 994.759 32.968, 996.441 32.930 C 998.124 32.891, 1000.400 32.505, 1001.500 32.072 C 1002.965 31.495, 1002.431 31.302, 999.500 31.347 C 997.300 31.382, 994.375 31.556, 993 31.735 M 640.187 40.750 C 640.541 42.607, 645 43.862, 645 42.105 C 645 41.134, 641.901 39, 640.492 39 C 640.141 39, 640.003 39.788, 640.187 40.750 M 1089.250 52.723 C 1085.521 53.186, 1084.874 55.515, 1088.250 56.320 C 1089.487 56.615, 1093.078 56.690, 1096.228 56.488 C 1099.378 56.285, 1102.217 56.543, 1102.537 57.060 C 1102.857 57.577, 1105.540 58, 1108.500 58 C 1111.460 58, 1114.129 58.400, 1114.432 58.889 C 1114.734 59.378, 1116.122 60.065, 1117.517 60.415 C 1118.912 60.765, 1122.567 62.201, 1125.638 63.606 C 1133.545 67.223, 1140.160 65.474, 1132.750 61.727 C 1128.233 59.442, 1123.807 56.727, 1122.235 55.276 C 1119.066 52.350, 1099.392 50.748, 1097.822 53.289 C 1097.253 54.209, 1096.798 54.198, 1095.842 53.242 C 1095.159 52.559, 1094.127 52.072, 1093.550 52.160 C 1092.973 52.248, 1091.037 52.502, 1089.250 52.723 M 914.975 59.565 C 914.439 60.976, 914 62.551, 914 63.065 C 914 63.579, 913.598 64, 913.107 64 C 912.134 64, 910.700 67.033, 911.360 67.693 C 911.751 68.084, 918 58.478, 918 57.485 C 918 55.896, 915.793 57.413, 914.975 59.565 M 942 59.216 C 939.887 60.136, 939.778 60.371, 941.298 60.735 C 942.287 60.972, 943.691 60.671, 944.419 60.067 C 945.307 59.331, 946.525 59.283, 948.121 59.921 C 950.231 60.765, 950.274 60.884, 948.500 60.967 C 946.707 61.051, 946.674 61.162, 948.185 62.044 C 949.319 62.705, 951.368 62.626, 954.446 61.803 L 959.021 60.579 954.761 59.305 C 949.642 57.774, 945.379 57.744, 942 59.216 M 1114.500 65 C 1114.840 65.550, 1115.563 66, 1116.107 66 C 1116.651 66, 1118.959 66.900, 1121.236 68 C 1125.677 70.146, 1128 70.531, 1128 69.123 C 1128 67.965, 1118.717 64, 1116.006 64 C 1114.838 64, 1114.160 64.450, 1114.500 65 M 1140.556 72.910 C 1139.966 73.864, 1143.756 77.577, 1144.530 76.804 C 1145.354 75.979, 1143.978 73.206, 1142.455 72.621 C 1141.690 72.327, 1140.835 72.458, 1140.556 72.910 M 886.699 123.209 C 886.388 125.524, 886.540 128.111, 887.037 128.959 C 887.649 130.005, 887.949 128.652, 887.970 124.750 C 888.005 117.964, 887.487 117.334, 886.699 123.209 M 889.362 175.646 C 888.338 177.329, 887.050 178.660, 886.500 178.603 C 885.438 178.494, 882.989 211.827, 883.607 218 C 885.046 232.392, 885.100 232.611, 886.564 229.966 C 887.315 228.610, 887.945 226.593, 887.965 225.485 C 888.015 222.644, 895.663 192.882, 897.565 188.130 C 899.230 183.967, 899.190 177.379, 897.500 177.676 C 896.950 177.773, 895.634 178.188, 894.576 178.600 C 893.079 179.182, 892.787 178.998, 893.258 177.771 C 893.590 176.904, 893.269 175.382, 892.543 174.390 C 891.311 172.705, 891.099 172.788, 889.362 175.646 M 984.969 222.059 C 983.777 224.285, 984.577 230, 986.079 230 C 987.288 230, 987.255 227.345, 986.018 225.034 C 985.289 223.672, 985.418 223.054, 986.518 222.631 C 987.333 222.319, 988 221.599, 988 221.031 C 988 219.265, 986.124 219.900, 984.969 222.059 M 909.067 354.933 C 907.930 356.070, 906.377 357, 905.617 357 C 904.005 357, 902.758 360.732, 904.094 361.558 C 904.592 361.866, 905 361.606, 905 360.980 C 905 360.243, 906.026 360.066, 907.905 360.479 C 909.590 360.849, 911.088 360.666, 911.474 360.042 C 911.839 359.451, 912.557 359.226, 913.069 359.543 C 914.594 360.485, 914.124 355.348, 912.567 354.056 C 911.428 353.110, 910.710 353.290, 909.067 354.933 M 882.368 435.875 C 882.715 437.731, 883 439.869, 883 440.625 C 883 441.381, 883.509 442, 884.131 442 C 885.564 442, 884.562 435.128, 882.904 433.586 C 882.022 432.766, 881.890 433.327, 882.368 435.875 M 885.250 443.496 C 883.779 445.166, 883.638 447.219, 884.903 448.550 C 885.400 449.072, 885.962 450.311, 886.153 451.303 C 886.707 454.181, 888.495 453.768, 888.546 450.750 C 888.575 449.060, 888.063 448, 887.217 448 C 886.208 448, 886.017 447.199, 886.500 445 C 887.235 441.652, 887.060 441.440, 885.250 443.496 M 743.500 514.835 C 742.400 515.058, 740.375 515.673, 739 516.201 L 736.500 517.160 739.229 518.601 C 741.725 519.919, 742.136 519.864, 744.042 517.958 C 746.500 515.500, 746.287 514.268, 743.500 514.835 M 681.607 557.582 C 681.273 558.452, 681 559.806, 681 560.590 C 681 561.999, 681.293 561.921, 685.893 559.274 C 686.481 558.935, 683.874 556, 682.985 556 C 682.561 556, 681.941 556.712, 681.607 557.582 M 1108.580 627.190 C 1106.758 629.790, 1107.586 631.286, 1109.442 628.748 C 1111.220 626.317, 1112.996 626.565, 1113.022 629.250 L 1113.044 631.500 1114.953 629.016 C 1116.343 627.207, 1116.540 626.328, 1115.681 625.781 C 1113.431 624.351, 1110.106 625.010, 1108.580 627.190" stroke="none" fill="#704a44" fill-rule="evenodd"/><path d="M 0 360 L 0 720 80.500 720 L 161 720 161 716 C 161 713.248, 161.434 712, 162.393 712 C 163.159 712, 164.047 711.321, 164.365 710.491 C 164.683 709.662, 166.194 708.436, 167.722 707.768 C 169.250 707.100, 172.075 705.341, 174 703.860 C 175.925 702.379, 179.075 700.724, 181 700.182 C 184.303 699.253, 192.082 696.625, 196.500 694.946 C 197.600 694.528, 200.750 693.665, 203.500 693.030 C 211.943 691.078, 216 689.718, 216 688.840 C 216 688.378, 216.906 688, 218.014 688 C 219.121 688, 220.809 687.576, 221.764 687.058 C 222.719 686.540, 228.225 685.148, 234 683.965 C 239.775 682.782, 245.534 681.406, 246.797 680.907 C 248.060 680.408, 251.098 680, 253.547 680 C 255.996 680, 258 679.654, 258 679.232 C 258 678.809, 262.613 677.642, 268.250 676.638 C 273.887 675.633, 279.807 674.179, 281.404 673.406 C 283.001 672.633, 285.279 672, 286.466 672 C 287.653 672, 290.487 671.100, 292.764 670 C 295.041 668.900, 297.683 668, 298.636 668 C 299.589 668, 302.198 667.174, 304.434 666.165 C 306.670 665.156, 310.975 663.506, 314 662.498 C 317.025 661.489, 319.725 660.362, 320 659.992 C 320.869 658.823, 330.234 656, 333.244 656 C 334.832 656, 337.066 655.500, 338.208 654.889 C 339.350 654.277, 341.908 653.655, 343.892 653.505 C 345.877 653.355, 351.100 652.227, 355.500 650.998 C 359.900 649.769, 364.850 648.561, 366.500 648.313 C 368.150 648.066, 370.400 647.476, 371.500 647.002 C 375.155 645.426, 380.432 644.037, 386.500 643.054 C 395.104 641.659, 403.260 639.903, 405 639.070 C 405.825 638.674, 410.325 637.273, 415 635.954 C 419.675 634.636, 423.725 633.317, 424 633.024 C 424.827 632.140, 430.977 630.288, 440.500 628.055 C 445.450 626.894, 450.400 625.559, 451.500 625.089 C 452.600 624.618, 456.200 623.441, 459.500 622.474 C 470.911 619.131, 475.504 617.593, 476.450 616.798 C 476.973 616.359, 478.323 615.998, 479.450 615.995 C 484.158 615.985, 511.897 603.817, 516.378 599.797 C 519.090 597.364, 526.629 595, 531.678 595 C 534.634 595, 536 594.574, 536 593.654 C 536 592.585, 537.081 592.681, 541.250 594.121 C 544.138 595.119, 547.294 595.949, 548.264 595.967 C 550.157 596.002, 550.378 596.097, 559.596 600.834 C 562.949 602.557, 568.799 604.708, 572.596 605.615 C 580.993 607.621, 593.659 608.511, 595.300 607.212 C 595.960 606.689, 598.975 605.691, 602 604.994 C 609.533 603.258, 615.772 599.925, 620.346 595.196 L 624.191 591.220 623.478 583.610 C 622.953 578.010, 622.387 576, 621.335 576 C 620.548 576, 618.913 574.954, 617.702 573.675 C 616.491 572.397, 614.712 571.061, 613.750 570.707 C 612.787 570.353, 612 569.599, 612 569.031 C 612 568.464, 611.425 568, 610.722 568 C 610.019 568, 608.663 567.087, 607.708 565.972 C 606.753 564.857, 604.628 563.676, 602.986 563.347 C 601.344 563.019, 600 562.131, 600 561.375 C 600 560.619, 599.100 560, 598 560 C 596.900 560, 596 559.583, 596 559.073 C 596 558.564, 593.413 556.969, 590.250 555.529 C 586.318 553.738, 581.891 550.323, 576.250 544.727 C 571.712 540.227, 568 536.041, 568 535.426 C 568 534.811, 567.264 532.831, 566.364 531.028 C 564.897 528.088, 564.861 526.515, 566.014 515.874 C 566.721 509.343, 567.585 504, 567.934 504 C 569.242 504, 572 498.082, 572 495.276 C 572 491.787, 568.123 488, 564.551 488 C 563.213 488, 561.840 487.550, 561.500 487 C 561.160 486.450, 559.784 486, 558.441 486 C 557.098 486, 556 485.550, 556 485 C 556 484.450, 555.161 484, 554.135 484 C 553.109 484, 551.126 483.100, 549.727 482 C 548.329 480.900, 545.813 480, 544.137 480 C 537.843 480, 527.997 470.791, 525.498 462.568 C 523.230 455.102, 523.505 441.325, 526.004 437.226 C 527.102 435.425, 528.017 433.400, 528.038 432.726 C 528.111 430.366, 537.780 421.128, 543.106 418.327 C 546.063 416.772, 549.359 414.713, 550.430 413.750 C 551.501 412.788, 552.898 412, 553.534 412 C 554.170 412, 555.505 411.100, 556.500 410 C 557.495 408.900, 559.140 408, 560.155 408 C 562.360 408, 563.553 407.028, 573.290 397.290 C 584.536 386.045, 583.990 386.995, 583.036 380.317 C 581.875 372.194, 579.294 366.346, 575.761 363.830 L 572.750 361.686 573.436 353.234 C 574.006 346.206, 574.535 344.336, 576.572 342.141 C 577.920 340.688, 579.272 338.712, 579.578 337.750 C 579.884 336.788, 580.736 336, 581.470 336 C 582.205 336, 584.377 333.637, 586.297 330.750 C 588.217 327.863, 591.138 324.091, 592.788 322.370 C 594.438 320.648, 596.105 317.723, 596.492 315.870 C 596.880 314.016, 597.827 311.503, 598.598 310.285 C 599.369 309.067, 600 307.155, 600 306.035 C 600 304.916, 600.414 304, 600.920 304 C 601.425 304, 602.575 301.785, 603.474 299.077 C 604.374 296.369, 605.760 293.614, 606.555 292.955 C 607.350 292.295, 608 290.910, 608 289.878 C 608 288.845, 608.367 288, 608.816 288 C 609.265 288, 610.643 286.200, 611.880 284 C 613.116 281.800, 614.549 280, 615.064 280 C 615.579 280, 616 279.100, 616 278 C 616 276.900, 615.550 276, 615 276 C 614.450 276, 614 275.100, 614 274 C 614 272.900, 614.450 272, 615 272 C 615.550 272, 616 270.650, 616 269 C 616 267.350, 616.450 266, 617 266 C 617.550 266, 618 263.750, 618 261 C 618 256.208, 617.885 256, 615.241 256 C 613.607 256, 611.994 255.220, 611.288 254.090 C 610.272 252.463, 608.494 252.100, 599.298 251.642 C 586.562 251.009, 580.197 250.129, 579.435 248.894 C 579.131 248.402, 577.614 248, 576.063 248 C 574.513 248, 572.685 247.325, 572 246.500 C 571.315 245.675, 570.334 245, 569.820 245 C 568.514 245, 560.063 235.765, 560.028 234.300 C 560.013 233.640, 559.427 232.740, 558.726 232.300 C 558.025 231.860, 556.687 230.296, 555.752 228.825 C 553.564 225.382, 548.001 220.157, 545.750 219.430 C 544.787 219.119, 544 218.221, 544 217.433 C 544 216.645, 543.307 216, 542.461 216 C 540.954 216, 531 206.620, 531 205.200 C 531 204.804, 529.913 203.307, 528.584 201.874 C 525.301 198.334, 524.123 193.474, 523.403 180.500 C 523.068 174.450, 522.165 166.960, 521.397 163.856 C 520.628 160.751, 519.993 156.701, 519.985 154.856 C 519.977 153.010, 519.305 149.587, 518.490 147.250 C 517.183 143.497, 517.183 142.503, 518.490 138.750 C 519.305 136.412, 519.977 133.579, 519.985 132.453 C 519.993 131.328, 520.787 129.343, 521.750 128.042 C 528.973 118.281, 538.707 113.113, 551.500 112.249 C 555.900 111.951, 559.799 111.247, 560.165 110.683 C 560.574 110.051, 570.087 109.480, 584.943 109.195 C 604.188 108.826, 612.181 109.100, 624.528 110.551 L 640 112.369 640.043 135.435 C 640.066 148.121, 640.249 183.700, 640.448 214.500 C 640.648 245.300, 640.934 342.050, 641.084 429.500 C 641.234 516.950, 641.549 588.871, 641.784 589.325 C 642.019 589.779, 643.289 589.138, 644.605 587.901 C 647.011 585.641, 648.083 586.517, 645.758 588.842 C 644.770 589.830, 644.820 590.275, 646.008 591.026 C 648.277 592.461, 648.864 592.197, 648.290 590 C 648.002 588.900, 648.236 588, 648.810 588 C 650.210 588, 653.025 582.228, 652.408 580.621 C 652.139 579.919, 652.413 578.045, 653.017 576.456 C 653.910 574.108, 654.303 573.842, 655.123 575.034 C 655.894 576.156, 655.988 575.989, 655.522 574.325 C 655.047 572.628, 655.526 571.851, 657.707 570.785 C 659.341 569.987, 660.386 568.747, 660.226 567.797 C 660.031 566.641, 660.502 566.318, 661.863 566.675 C 664.136 567.269, 665.815 565.122, 663.969 563.981 C 663.261 563.543, 661.966 563.441, 661.091 563.755 C 660.216 564.068, 660.757 563.130, 662.292 561.671 C 663.828 560.211, 666.158 558.747, 667.470 558.418 C 668.782 558.089, 670.077 557.241, 670.349 556.533 C 670.631 555.799, 671.841 555.435, 673.171 555.684 C 675.013 556.030, 675.781 555.477, 676.841 553.044 C 677.733 550.997, 679.638 549.304, 682.530 547.986 C 684.922 546.897, 687.158 545.554, 687.498 545.003 C 687.839 544.451, 689.104 543.986, 690.309 543.968 C 694.235 543.912, 700.542 536.802, 697.694 535.644 C 697.037 535.376, 697.303 535.122, 698.285 535.079 C 700.629 534.975, 704.572 532.388, 709.451 527.753 C 711.625 525.689, 714.122 524, 715.001 524 C 715.881 524, 717.129 523.471, 717.776 522.824 C 718.678 521.922, 719.408 522.059, 720.902 523.411 C 723.322 525.602, 726.352 525.132, 726.857 522.489 C 727.066 521.395, 728.309 519.426, 729.619 518.114 C 731.518 516.210, 732 516.058, 732 517.364 C 732 518.333, 732.815 519, 734 519 C 735.100 519, 736 518.550, 736 518 C 736 517.450, 735.550 517, 735 517 C 732.312 517, 734.496 514.944, 738.250 513.941 C 740.587 513.316, 742.991 512.402, 743.592 511.911 C 744.193 511.419, 744.969 511.303, 745.318 511.651 C 745.666 512, 746.590 511.756, 747.369 511.108 C 748.149 510.461, 750.174 509.756, 751.870 509.542 C 753.565 509.327, 757.551 508.612, 760.726 507.952 C 763.902 507.292, 766.950 506.668, 767.500 506.565 C 768.050 506.462, 769.400 506.080, 770.500 505.716 C 772.193 505.156, 782.791 503.594, 800.500 501.295 C 802.700 501.009, 805.043 500.337, 805.706 499.801 C 806.370 499.266, 807.412 499.137, 808.023 499.514 C 808.633 499.891, 809.741 499.368, 810.485 498.352 C 811.228 497.335, 812.166 496.833, 812.569 497.236 C 812.972 497.639, 813.797 497.326, 814.401 496.539 C 815.006 495.753, 816.737 494.811, 818.250 494.446 C 820.385 493.931, 821 494.143, 821 495.392 C 821 497.401, 822.371 497.463, 823.978 495.526 C 824.651 494.716, 826.843 493.745, 828.850 493.370 C 830.858 492.994, 834 492.060, 835.834 491.294 C 837.668 490.529, 839.918 490.017, 840.834 490.156 C 841.750 490.296, 843.548 489.833, 844.828 489.128 C 846.109 488.423, 847.895 488.129, 848.798 488.476 C 849.700 488.822, 850.108 488.774, 849.703 488.370 C 848.732 487.399, 854.509 485.004, 857.865 484.985 C 859.314 484.977, 862.525 484.245, 865 483.359 C 867.475 482.472, 872.812 481.598, 876.860 481.417 L 884.219 481.086 884.397 476.606 C 884.589 471.783, 887.073 468, 890.048 468 C 892.323 468, 893.273 465.378, 891.915 462.842 C 890.452 460.108, 891.562 459.293, 893.885 461.396 C 895.036 462.438, 895.579 463.895, 895.264 465.099 C 894.918 466.420, 895.193 466.987, 896.084 466.793 C 896.900 466.614, 897.800 467.966, 898.389 470.253 C 899.044 472.800, 899.860 473.925, 900.927 473.753 C 902.086 473.567, 902.536 474.422, 902.638 477 C 902.714 478.925, 902.827 481.063, 902.888 481.750 C 903.051 483.572, 906.744 483.280, 907.819 481.360 C 908.859 479.500, 911 480.347, 911 482.618 C 911 483.443, 911.453 483.838, 912.007 483.496 C 912.561 483.153, 913.284 483.577, 913.614 484.437 C 913.944 485.296, 914.953 485.986, 915.857 485.969 C 917.748 485.932, 921.375 481.415, 920.565 480.105 C 920.266 479.622, 921.030 478.963, 922.261 478.639 C 923.493 478.316, 924.650 478.490, 924.833 479.026 C 925.017 479.561, 925.606 480, 926.142 480 C 926.679 480, 926.872 479.601, 926.570 479.114 C 925.631 477.594, 929.862 477.128, 931.096 478.616 C 931.943 479.636, 932.620 479.730, 933.552 478.957 C 934.497 478.173, 935.082 478.324, 935.755 479.527 C 936.924 481.616, 942.500 481.181, 942.500 479 C 942.500 478.175, 942.950 477.128, 943.500 476.674 C 944.145 476.141, 944.042 475.663, 943.208 475.327 C 942.183 474.913, 942.170 474.500, 943.144 473.327 C 944.117 472.154, 944.106 471.684, 943.094 471.058 C 942.061 470.420, 942.072 469.858, 943.148 468.134 C 943.881 466.960, 945.048 466, 945.741 466 C 946.433 466, 947 465.550, 947 465 C 947 464.450, 946.345 464, 945.545 464 C 944.675 464, 943.827 462.595, 943.434 460.500 C 942.847 457.372, 941 455.474, 941 458 C 941 458.550, 940.550 459, 940 459 C 939.450 459, 939 458.277, 939 457.393 C 939 456.408, 938.445 455.999, 937.565 456.337 C 936.775 456.640, 935.973 456.419, 935.782 455.845 C 935.591 455.272, 933.347 454.568, 930.795 454.280 C 927.299 453.886, 926.292 453.403, 926.707 452.321 C 927.103 451.290, 926.586 450.944, 924.879 451.097 C 921.043 451.442, 917.606 451.036, 916.057 450.056 C 914.874 449.308, 914.832 448.665, 915.823 446.489 C 916.985 443.938, 916.754 441.927, 914.348 433.672 C 913.958 432.333, 914.309 431.895, 915.658 432.037 C 919.249 432.414, 920 431.971, 920 429.475 C 920 427.753, 920.739 426.670, 922.325 426.066 C 925.005 425.048, 928.414 420.374, 927.079 419.549 C 926.585 419.243, 925.465 419.268, 924.590 419.604 C 923.543 420.006, 923 419.665, 923 418.607 C 923 417.723, 923.717 417, 924.594 417 C 925.470 417, 926.414 416.131, 926.692 415.069 C 926.976 413.982, 927.776 413.361, 928.522 413.647 C 929.250 413.926, 930.347 413.220, 930.958 412.078 C 932.036 410.064, 931.428 409.459, 928.750 409.882 C 928.337 409.947, 928 409.594, 928 409.098 C 928 408.602, 926.583 407.702, 924.851 407.098 C 921.135 405.803, 919.996 405.711, 921.793 406.851 C 922.814 407.499, 922.709 408.127, 921.293 409.833 C 919.385 412.133, 912.090 414.281, 913.404 412.156 C 913.797 411.520, 913.641 411, 913.059 411 C 912.477 411, 912 411.675, 912 412.500 C 912 413.325, 911.325 414, 910.500 414 C 909.675 414, 908.993 414.563, 908.985 415.250 C 908.974 416.149, 908.722 416.110, 908.091 415.112 C 907.373 413.979, 906.791 414.117, 904.917 415.862 C 903.655 417.038, 902.307 418, 901.920 418 C 901.533 418, 900.934 419.125, 900.589 420.500 C 899.841 423.480, 898.613 423.649, 895.921 421.141 C 894.269 419.602, 893.956 418.136, 894.107 412.641 C 894.208 408.988, 894.675 406, 895.145 406 C 895.615 406, 896 403.552, 896 400.559 C 896 397.566, 896.450 394.840, 897 394.500 C 897.550 394.160, 898 393.019, 898 391.964 C 898 390.909, 899.238 389.280, 900.750 388.343 C 902.263 387.406, 904.114 385.933, 904.865 385.070 C 905.895 383.885, 906.346 383.810, 906.703 384.765 C 907.037 385.657, 908.019 385.321, 910.040 383.620 C 911.615 382.295, 914.275 380.603, 915.952 379.861 C 917.628 379.119, 919 377.968, 919 377.304 C 919 376.640, 921.025 374.703, 923.500 373 C 928.752 369.386, 929.277 366.772, 925.099 365.041 C 920.987 363.338, 918.375 360.030, 918.156 356.250 C 918.053 354.462, 918.313 352.998, 918.734 352.996 C 919.155 352.994, 920.333 350.966, 921.352 348.490 C 922.648 345.338, 923.941 343.802, 925.661 343.370 C 927.181 342.989, 927.921 342.237, 927.600 341.401 C 927.315 340.657, 927.694 338.012, 928.443 335.523 C 929.220 332.941, 929.417 330.758, 928.903 330.440 C 927.349 329.480, 927.898 328.492, 931 326.659 C 932.650 325.684, 934 324.228, 934 323.422 C 934 321.604, 938.949 314, 940.133 314 C 940.610 314, 941 313.236, 941 312.302 C 941 311.368, 942.912 307.654, 945.250 304.049 C 955.167 288.756, 955.484 287.865, 955.151 276.250 C 955.038 272.317, 954.624 271, 953.500 271 C 952.675 271, 952 271.675, 952 272.500 C 952 273.325, 951.520 273.888, 950.934 273.750 C 950.348 273.613, 949.177 275.525, 948.333 278 C 947.488 280.475, 945.791 283.850, 944.561 285.500 C 939.184 292.711, 935.029 299.027, 932.977 303.107 C 929.770 309.482, 928.260 310.838, 923.593 311.538 C 918.106 312.361, 907.941 309.073, 906.849 306.121 C 905.963 303.725, 906.258 303.487, 911.215 302.593 C 913.258 302.224, 915.215 301.461, 915.563 300.897 C 915.977 300.228, 914.988 300.099, 912.713 300.526 C 908.311 301.352, 907.078 299.650, 910.468 297.429 C 911.976 296.441, 913 294.829, 913 293.444 C 913 290.483, 911.591 289.614, 909.021 290.989 C 907.658 291.718, 907 291.734, 907 291.035 C 907 290.466, 906.550 290, 906 290 C 905.450 290, 904.993 290.788, 904.985 291.750 C 904.972 293.213, 904.817 293.260, 904.043 292.035 C 902.967 290.334, 896.092 289.783, 894.250 291.250 C 893.352 291.964, 893 291.777, 893 290.587 C 893 289.676, 892.272 287.818, 891.382 286.460 C 890.254 284.739, 890.071 283.613, 890.779 282.745 C 891.337 282.060, 891.986 279.250, 892.220 276.500 C 892.454 273.750, 892.876 270.825, 893.159 270 C 893.441 269.175, 893.483 268.837, 893.253 269.250 C 892.519 270.562, 891 270.057, 891 268.500 C 891 267.675, 890.295 267, 889.433 267 C 888.304 267, 888.049 267.578, 888.521 269.066 C 889.157 271.070, 889.115 271.079, 887.088 269.344 C 885.940 268.360, 885 266.756, 885 265.778 C 885 264.800, 884.325 264, 883.500 264 C 881.472 264, 881.613 261.678, 883.917 257.164 C 884.971 255.097, 886.150 251.716, 886.538 249.650 C 886.944 247.487, 888.741 244.224, 890.772 241.961 L 894.302 238.029 896.624 240.352 C 898.813 242.540, 899.537 242.651, 909.144 242.275 C 915.819 242.013, 920.049 241.378, 921.393 240.437 C 922.522 239.647, 924.456 239, 925.691 239 C 927.373 239, 927.799 238.561, 927.387 237.250 C 927.075 236.257, 927.774 236.690, 929.002 238.250 C 930.193 239.763, 931.756 241, 932.476 241 C 933.197 241, 934.042 241.667, 934.355 242.483 C 934.679 243.327, 935.587 243.712, 936.462 243.376 C 937.308 243.052, 938 243.247, 938 243.810 C 938 244.373, 937.437 245.060, 936.750 245.338 C 936.063 245.615, 937.220 245.878, 939.321 245.921 C 943.310 246.003, 946 244.251, 946 241.571 C 946 239.571, 947.933 239.565, 950.777 241.557 C 952.960 243.086, 953.875 242.315, 952.092 240.450 C 951.533 239.865, 952.520 238.863, 954.659 237.844 C 958.036 236.234, 958.158 236.248, 959.003 238.344 C 959.482 239.530, 959.902 239.882, 959.937 239.128 C 959.987 238.039, 960.302 238.005, 961.459 238.966 C 962.658 239.961, 963.028 239.737, 963.538 237.703 C 963.978 235.953, 964.681 235.365, 965.942 235.695 C 967.646 236.141, 969.694 233.361, 968.524 232.190 C 968.236 231.902, 968 232.218, 968 232.892 C 968 233.566, 967.570 233.852, 967.044 233.527 C 965.567 232.615, 966.830 230.438, 968.928 230.280 C 969.980 230.201, 971.012 230.937, 971.279 231.958 C 971.685 233.512, 972.359 233.666, 975.917 233.015 C 978.206 232.597, 980.399 231.916, 980.790 231.503 C 981.180 231.090, 980.487 231.063, 979.250 231.443 C 976.068 232.421, 976.226 229.310, 979.432 227.849 C 982.543 226.432, 984.411 221.922, 983.701 217.545 C 983.328 215.247, 983.611 213.738, 984.563 212.948 C 985.759 211.955, 985.631 211.505, 983.740 210.056 C 981.237 208.139, 977.890 206.600, 976.750 206.841 C 976.337 206.929, 976 206.502, 976 205.893 C 976 205.284, 975.325 205.045, 974.500 205.362 C 973.586 205.712, 973 205.363, 973 204.469 C 973 203.661, 973.675 203, 974.500 203 C 976.441 203, 976.441 201.383, 974.500 200.638 C 973.675 200.322, 973 199.374, 973 198.531 C 973 197.497, 972.027 197, 970 197 C 967.697 197, 967 197.451, 967 198.941 C 967 201.713, 964.970 202.600, 964.319 200.112 C 964.018 198.963, 963.410 198.247, 962.967 198.520 C 962.524 198.794, 961.485 198.342, 960.659 197.516 C 959.322 196.179, 959.086 196.332, 958.522 198.898 C 958.002 201.268, 957.497 201.681, 955.694 201.211 C 951.578 200.137, 950.687 198.319, 951.382 192.408 C 951.947 187.600, 951.750 186.640, 949.763 184.515 C 948.518 183.185, 946.911 181.390, 946.190 180.526 C 945.470 179.663, 944.522 179.177, 944.085 179.448 C 943.647 179.718, 941.461 178.375, 939.228 176.463 C 935.789 173.519, 934.787 173.131, 932.690 173.928 C 929.382 175.186, 926.422 174.293, 924.579 171.481 C 923.036 169.126, 920.096 169.040, 917.250 171.267 C 916.116 172.154, 915.596 171.317, 915.813 168.954 C 915.918 167.817, 911.352 168.632, 907.750 170.394 C 905.391 171.548, 904 172.927, 904 174.114 C 904 175.151, 903.619 176, 903.153 176 C 902.687 176, 901.817 177.012, 901.220 178.250 C 900.209 180.347, 900.130 180.364, 900.053 178.500 C 899.838 173.323, 895.780 166, 893.126 166 C 892.546 166, 892.223 164.047, 892.376 161.462 C 892.569 158.182, 892.299 157.055, 891.404 157.398 C 890.723 157.660, 889.903 157.190, 889.583 156.355 C 888.752 154.189, 888.825 154, 890.500 154 C 893.786 154, 892.176 150.811, 886.562 146.202 C 885.377 145.228, 885.234 144.432, 885.991 143.018 C 887.316 140.541, 887.264 140, 885.701 140 C 884.148 140, 883.948 132.017, 885.500 131.988 C 886.050 131.978, 885.879 131.576, 885.121 131.096 C 884.071 130.431, 883.909 128.885, 884.441 124.627 C 884.825 121.549, 885.504 118.807, 885.949 118.532 C 886.394 118.257, 886.537 116.074, 886.268 113.682 C 885.943 110.798, 886.321 108.281, 887.389 106.215 C 888.275 104.502, 889 102.177, 889 101.050 C 889 99.922, 889.459 99, 890.019 99 C 890.580 99, 890.805 100.125, 890.519 101.500 C 890.234 102.875, 889.766 105.125, 889.481 106.500 C 889.195 107.875, 889.364 109, 889.856 109 C 890.961 109, 892 104.062, 892 98.809 C 892 96.642, 892.412 94.099, 892.916 93.157 C 893.419 92.216, 894.322 87.920, 894.921 83.610 C 895.736 77.753, 896.910 74.225, 899.569 69.637 C 901.526 66.262, 902.827 64.625, 902.460 66 C 902.092 67.375, 901.189 69.458, 900.453 70.628 C 898.476 73.769, 898.039 81.712, 899.906 80.558 C 900.404 80.250, 900.579 79.108, 900.295 78.020 C 899.972 76.784, 901.083 74.063, 903.254 70.771 C 905.166 67.872, 907.436 64.116, 908.300 62.425 C 911.294 56.562, 922.780 47.841, 923.735 50.706 C 923.952 51.356, 924.775 51.640, 925.565 51.337 C 926.354 51.034, 927 51.284, 927 51.893 C 927 52.502, 927.661 53, 928.469 53 C 929.285 53, 929.709 52.405, 929.423 51.661 C 929.059 50.711, 930.885 49.817, 935.705 48.588 C 944.680 46.298, 947.243 45.203, 946.487 43.979 C 946.143 43.423, 945.444 43.226, 944.933 43.542 C 944.422 43.857, 943.061 43.455, 941.908 42.648 C 939.922 41.257, 940.118 41.117, 945.656 39.966 C 949.147 39.241, 954.432 38.999, 958.780 39.366 C 962.784 39.703, 966.834 39.556, 967.780 39.038 C 971.984 36.737, 976.973 34.943, 983 33.563 C 990.432 31.862, 1004.625 30.665, 1001.500 32.003 C 1000.400 32.474, 998.124 32.891, 996.441 32.930 C 994.759 32.968, 992.509 33.661, 991.441 34.468 C 989.605 35.857, 989.676 35.938, 992.750 35.968 C 994.958 35.990, 996 36.481, 996 37.500 C 996 39.288, 999.109 39.491, 1000.788 37.812 C 1001.461 37.139, 1004.794 36.625, 1008.487 36.625 C 1012.069 36.625, 1015 36.271, 1015 35.837 C 1015 35.404, 1016.128 35.478, 1017.507 36.003 C 1021.941 37.688, 1030.053 38.025, 1030.620 36.547 C 1031.027 35.487, 1032.173 35.610, 1036.315 37.160 C 1040.758 38.823, 1047.212 39.681, 1058 40.043 L 1060.500 40.127 1058.136 41.073 C 1056.181 41.856, 1055.986 42.278, 1057.008 43.510 C 1058.654 45.493, 1063.416 45.408, 1065.111 43.367 C 1066.298 41.936, 1068.147 41.820, 1079.983 42.433 C 1096.135 43.268, 1100.960 44.154, 1111.500 48.216 C 1121.039 51.892, 1140.108 64.147, 1146.751 70.870 C 1155.678 79.905, 1158.663 83.501, 1159.972 86.797 C 1160.693 88.611, 1162.515 90.732, 1164.022 91.511 C 1168.150 93.646, 1177.817 104.065, 1179.043 107.702 C 1179.637 109.463, 1180.962 111.170, 1181.986 111.495 C 1184.447 112.277, 1190.802 118.555, 1194.294 123.654 C 1195.830 125.897, 1198.193 128.772, 1199.544 130.041 C 1200.895 131.310, 1202 133.170, 1202 134.174 C 1202 135.178, 1202.563 136.005, 1203.250 136.010 C 1203.938 136.016, 1205.756 138.829, 1207.292 142.260 C 1208.827 145.692, 1210.510 149.175, 1211.031 150 C 1216.074 157.981, 1217.467 164.223, 1214.463 165.376 C 1213.225 165.851, 1213.060 166.971, 1213.614 171.148 C 1214.227 175.770, 1214.117 176.259, 1212.599 175.676 C 1211.566 175.280, 1211.143 175.422, 1211.523 176.038 C 1211.869 176.596, 1212.826 176.929, 1213.652 176.777 C 1216.570 176.239, 1219.249 188.433, 1217.164 192.764 C 1216.704 193.719, 1214.796 197.650, 1212.923 201.500 C 1211.050 205.350, 1209.632 209, 1209.771 209.612 C 1209.910 210.224, 1209.347 212.024, 1208.518 213.612 C 1207.690 215.200, 1207.010 217.406, 1207.006 218.514 C 1207.003 219.622, 1206.063 222.997, 1204.917 226.014 C 1201.195 235.819, 1197.897 247.025, 1198.464 247.942 C 1198.769 248.435, 1198.339 249.518, 1197.509 250.348 C 1196.679 251.178, 1196 252.959, 1196 254.306 C 1196 255.653, 1195.325 257.315, 1194.500 258 C 1193.675 258.685, 1192.984 260.652, 1192.964 262.372 C 1192.916 266.629, 1190.579 275.841, 1188.619 279.500 C 1186.190 284.036, 1186.540 288.844, 1189.500 291.588 C 1190.875 292.862, 1192 293.406, 1192 292.797 C 1192 292.188, 1192.889 292.495, 1193.976 293.479 C 1195.063 294.462, 1195.741 295.610, 1195.482 296.029 C 1195.223 296.448, 1195.684 297.048, 1196.506 297.364 C 1197.328 297.679, 1198 298.626, 1198 299.469 C 1198 300.311, 1198.437 301, 1198.972 301 C 1200.570 301, 1202.756 310.968, 1202.947 319.129 C 1203.145 327.571, 1201.356 335.399, 1197.263 344 C 1193.867 351.134, 1186.756 363.405, 1185.769 363.833 C 1185.346 364.017, 1185 364.864, 1185 365.715 C 1185 367.270, 1171.858 386.352, 1169.994 387.504 C 1169.447 387.841, 1169 389.201, 1169 390.524 C 1169 393.963, 1163.768 399.453, 1159.182 400.827 C 1153.985 402.384, 1150.976 402.306, 1146.654 400.500 C 1142.056 398.579, 1142.290 398.530, 1140.653 401.750 C 1138.575 405.835, 1131 428.582, 1131 430.736 C 1131 431.761, 1130.613 433.027, 1130.140 433.550 C 1129.303 434.474, 1127.714 439.058, 1124.546 449.688 C 1122.081 457.961, 1119.620 475.166, 1120.348 479.044 C 1120.797 481.435, 1122.589 484.140, 1125.855 487.357 L 1130.697 492.126 1140.598 492.559 C 1146.044 492.797, 1155.675 493.206, 1162 493.469 C 1175.606 494.033, 1181.311 495.207, 1189.791 499.188 C 1197.001 502.573, 1202.574 508.861, 1208.679 520.500 C 1210.698 524.350, 1212.879 527.950, 1213.526 528.500 C 1214.172 529.050, 1215.998 531.300, 1217.583 533.500 C 1223.050 541.090, 1233.895 550.567, 1239.361 552.532 C 1242.188 553.548, 1245.625 554.966, 1247 555.684 C 1248.375 556.401, 1250.889 556.990, 1252.588 556.994 L 1255.675 557 1256.336 595.250 C 1256.700 616.288, 1256.998 652.977, 1256.999 676.782 L 1257 720.063 1268.750 719.782 L 1280.500 719.500 1280.751 359.750 L 1281.003 0 640.501 0 L 0 0 0 360 M 0.495 360.500 C 0.495 558.500, 0.609 639.649, 0.750 540.831 C 0.890 442.013, 0.890 280.013, 0.750 180.831 C 0.609 81.649, 0.495 162.500, 0.495 360.500 M 640.187 40.750 C 640.541 42.607, 645 43.862, 645 42.105 C 645 41.134, 641.901 39, 640.492 39 C 640.141 39, 640.003 39.788, 640.187 40.750 M 1089.250 52.723 C 1085.521 53.186, 1084.874 55.515, 1088.250 56.320 C 1089.487 56.615, 1093.078 56.690, 1096.228 56.488 C 1099.378 56.285, 1102.217 56.543, 1102.537 57.060 C 1102.857 57.577, 1105.540 58, 1108.500 58 C 1111.460 58, 1114.129 58.400, 1114.432 58.889 C 1114.734 59.378, 1116.122 60.065, 1117.517 60.415 C 1118.912 60.765, 1122.567 62.201, 1125.638 63.606 C 1133.545 67.223, 1140.160 65.474, 1132.750 61.727 C 1128.233 59.442, 1123.807 56.727, 1122.235 55.276 C 1119.066 52.350, 1099.392 50.748, 1097.822 53.289 C 1097.253 54.209, 1096.798 54.198, 1095.842 53.242 C 1095.159 52.559, 1094.127 52.072, 1093.550 52.160 C 1092.973 52.248, 1091.037 52.502, 1089.250 52.723 M 914.975 59.565 C 914.439 60.976, 914 62.551, 914 63.065 C 914 63.579, 913.598 64, 913.107 64 C 912.134 64, 910.700 67.033, 911.360 67.693 C 911.751 68.084, 918 58.478, 918 57.485 C 918 55.896, 915.793 57.413, 914.975 59.565 M 942 59.216 C 939.887 60.136, 939.778 60.371, 941.298 60.735 C 942.287 60.972, 943.691 60.671, 944.419 60.067 C 945.307 59.331, 946.525 59.283, 948.121 59.921 C 950.231 60.765, 950.274 60.884, 948.500 60.967 C 946.707 61.051, 946.674 61.162, 948.185 62.044 C 949.319 62.705, 951.368 62.626, 954.446 61.803 L 959.021 60.579 954.761 59.305 C 949.642 57.774, 945.379 57.744, 942 59.216 M 1114.500 65 C 1114.840 65.550, 1115.563 66, 1116.107 66 C 1116.651 66, 1118.959 66.900, 1121.236 68 C 1125.677 70.146, 1128 70.531, 1128 69.123 C 1128 67.965, 1118.717 64, 1116.006 64 C 1114.838 64, 1114.160 64.450, 1114.500 65 M 1140.556 72.910 C 1139.966 73.864, 1143.756 77.577, 1144.530 76.804 C 1145.354 75.979, 1143.978 73.206, 1142.455 72.621 C 1141.690 72.327, 1140.835 72.458, 1140.556 72.910 M 886.699 123.209 C 886.388 125.524, 886.540 128.111, 887.037 128.959 C 887.649 130.005, 887.949 128.652, 887.970 124.750 C 888.005 117.964, 887.487 117.334, 886.699 123.209 M 889.362 175.646 C 888.338 177.329, 887.050 178.660, 886.500 178.603 C 885.438 178.494, 882.989 211.827, 883.607 218 C 885.046 232.392, 885.100 232.611, 886.564 229.966 C 887.315 228.610, 887.945 226.593, 887.965 225.485 C 888.015 222.644, 895.663 192.882, 897.565 188.130 C 899.230 183.967, 899.190 177.379, 897.500 177.676 C 896.950 177.773, 895.634 178.188, 894.576 178.600 C 893.079 179.182, 892.787 178.998, 893.258 177.771 C 893.590 176.904, 893.269 175.382, 892.543 174.390 C 891.311 172.705, 891.099 172.788, 889.362 175.646 M 984.969 222.059 C 983.777 224.285, 984.577 230, 986.079 230 C 987.288 230, 987.255 227.345, 986.018 225.034 C 985.289 223.672, 985.418 223.054, 986.518 222.631 C 987.333 222.319, 988 221.599, 988 221.031 C 988 219.265, 986.124 219.900, 984.969 222.059 M 909.067 354.933 C 907.930 356.070, 906.377 357, 905.617 357 C 904.005 357, 902.758 360.732, 904.094 361.558 C 904.592 361.866, 905 361.606, 905 360.980 C 905 360.243, 906.026 360.066, 907.905 360.479 C 909.590 360.849, 911.088 360.666, 911.474 360.042 C 911.839 359.451, 912.557 359.226, 913.069 359.543 C 914.594 360.485, 914.124 355.348, 912.567 354.056 C 911.428 353.110, 910.710 353.290, 909.067 354.933 M 882.368 435.875 C 882.715 437.731, 883 439.869, 883 440.625 C 883 441.381, 883.509 442, 884.131 442 C 885.564 442, 884.562 435.128, 882.904 433.586 C 882.022 432.766, 881.890 433.327, 882.368 435.875 M 885.250 443.496 C 883.779 445.166, 883.638 447.219, 884.903 448.550 C 885.400 449.072, 885.962 450.311, 886.153 451.303 C 886.707 454.181, 888.495 453.768, 888.546 450.750 C 888.575 449.060, 888.063 448, 887.217 448 C 886.208 448, 886.017 447.199, 886.500 445 C 887.235 441.652, 887.060 441.440, 885.250 443.496 M 743.500 514.835 C 742.400 515.058, 740.375 515.673, 739 516.201 L 736.500 517.160 739.229 518.601 C 741.725 519.919, 742.136 519.864, 744.042 517.958 C 746.500 515.500, 746.287 514.268, 743.500 514.835 M 681.607 557.582 C 681.273 558.452, 681 559.806, 681 560.590 C 681 561.999, 681.293 561.921, 685.893 559.274 C 686.481 558.935, 683.874 556, 682.985 556 C 682.561 556, 681.941 556.712, 681.607 557.582 M 1108.580 627.190 C 1106.758 629.790, 1107.586 631.286, 1109.442 628.748 C 1111.220 626.317, 1112.996 626.565, 1113.022 629.250 L 1113.044 631.500 1114.953 629.016 C 1116.343 627.207, 1116.540 626.328, 1115.681 625.781 C 1113.431 624.351, 1110.106 625.010, 1108.580 627.190 M 992.837 712.250 C 991.043 713.702, 988 718.088, 988 719.223 C 988 720.529, 997.056 720.086, 998.430 718.713 C 999.184 717.959, 999.521 716.096, 999.245 714.213 C 998.878 711.715, 998.285 711, 996.578 711 C 995.370 711, 993.687 711.563, 992.837 712.250" stroke="none" fill="#dcd8d5" fill-rule="evenodd"/></svg>